<mxfile host="app.diagrams.net" modified="2024-01-11T13:45:59.897Z" agent="Mozilla/5.0 (Windows NT 10.0; Win64; x64) AppleWebKit/537.36 (KHTML, like Gecko) Chrome/120.0.0.0 Safari/537.36" version="22.1.18" etag="f91oFsU97xe0d4I6oMuz" type="github">
  <diagram name="페이지-1" id="4IKkkMDqOIlSGtM9IomM">
    <mxGraphModel>
      <root>
        <mxCell id="0" />
        <mxCell id="1" parent="0" />
      </root>
    </mxGraphModel>
  </diagram>
</mxfile>
